<?xml version="1.0" encoding="UTF-8"?>
<svg id="Capa_1" data-name="Capa 1" xmlns="http://www.w3.org/2000/svg" viewBox="0 0 512 512">
  <defs>
    <style>
      .cls-1 {
        fill: #fcdd76;
      }

      .cls-1, .cls-2, .cls-3, .cls-4, .cls-5, .cls-6, .cls-7, .cls-8, .cls-9, .cls-10, .cls-11, .cls-12, .cls-13, .cls-14, .cls-15, .cls-16, .cls-17, .cls-18, .cls-19, .cls-20, .cls-21, .cls-22, .cls-23, .cls-24, .cls-25, .cls-26, .cls-27, .cls-28, .cls-29, .cls-30, .cls-31, .cls-32, .cls-33 {
        stroke-width: 0px;
      }

      .cls-2 {
        fill: #343434;
      }

      .cls-3 {
        fill: #4b1d1c;
      }

      .cls-4 {
        fill: #000001;
      }

      .cls-5 {
        fill: #491b19;
      }

      .cls-6 {
        fill: #4e2120;
      }

      .cls-7 {
        fill: #31312e;
      }

      .cls-8 {
        fill: #6f7474;
      }

      .cls-9 {
        fill: #914d25;
      }

      .cls-10 {
        fill: #010102;
      }

      .cls-11 {
        fill: #454544;
      }

      .cls-12 {
        fill: #454545;
      }

      .cls-13 {
        fill: #ba7180;
      }

      .cls-14 {
        fill: #e29b45;
      }

      .cls-15 {
        fill: #c97a42;
      }

      .cls-16 {
        fill: #30302e;
      }

      .cls-17 {
        fill: #aa7434;
      }

      .cls-18 {
        fill: #c2bbbb;
      }

      .cls-19 {
        fill: #222429;
      }

      .cls-20 {
        fill: #d8d7d7;
      }

      .cls-21 {
        fill: #f6d472;
      }

      .cls-22 {
        fill: #feae4e;
      }

      .cls-23 {
        fill: #4a1b1a;
      }

      .cls-24 {
        fill: #f8d874;
      }

      .cls-25 {
        fill: #f7d673;
      }

      .cls-26 {
        fill: #2d2d2d;
      }

      .cls-27 {
        fill: #333;
      }

      .cls-28 {
        fill: #fd4852;
      }

      .cls-29 {
        fill: #faaf5d;
      }

      .cls-30 {
        fill: #fadc75;
      }

      .cls-31 {
        fill: #491a19;
      }

      .cls-32 {
        fill: #d8d8d8;
      }

      .cls-33 {
        fill: #4d4d4d;
      }
    </style>
  </defs>
  <path class="cls-9" d="M184.49,505.94c-8.16-2.04-16.37-3.84-24.05-7.52-31.92-15.27-49.97-47.11-46.48-82.29-1.4-2.4-1.36-4.9-.75-7.53,5.45-23.53,17.62-42.33,38.55-55.03,15.77-9.57,32.99-13.15,51.25-12.59,2.83,1.93,6.25,1.57,9.38,2.21,37.65,7.68,65.83,41.74,65.6,80.18-.21,34.99-16.73,60.18-47.32,76.56-4.99,2.67-10.53,2.94-15.89,4.01-3.9.68-7.94.55-11.72,2h-18.55Z"/>
  <path class="cls-29" d="M267.44,104.72c1.31-3.99-.03-7.95-.35-11.87-1.11-13.32-.92-26.57,1.19-39.77.88-5.53,1.01-5.51,6.17-3.13.54.25,1.11.45,1.71.69.56-1.52-.41-2.37-.87-3.32-6.43-13.2-1.46-31.45,10.85-39.75.66-.44,1.23-1.01,1.84-1.52.33,0,.65,0,.98,0,2.33,4.09,4.43,8.3,5.69,12.84,1.3,4.69,3.17,9.7-4.32,11.79,7.36,2.34,7.52,2.37,6.33,9.5-2.07,12.43-4.36,24.82-6.56,37.22,1.15,1.55.6,3.16-.08,4.6-4.23,8.85-6.06,18.38-8.12,27.86-.3,1.4-.31,2.94-1.61,3.94-2.69.92-4.52-.01-5.59-2.59,1.27-23.56,3.2-47.05,7.23-70.31-3.96,22.79-5.86,45.8-7.17,68.88-3.59,2.22-6.44.26-7.33-5.05Z"/>
  <path class="cls-33" d="M313.33,169.01c11.24-2.58,22.62-4.42,34.06-5.84,7.42-.03,14.68-.96,21.62-3.73.93-.16,1.85-.32,2.78-.48,1.22,1.74.07,3.13-.81,4.41-11.48,16.78-16.47,35.89-19.75,55.55-1.93,11.57-2.64,23.23-1.12,34.94.19,1.46.11,2.92-.29,4.35-8.1,16.35-17.45,31.9-29.38,45.82-8.35,9.73-17.98,17.84-29.28,23.92-2.11,1.13-4.23,2.56-6.88,1.87-.51-.22-.94-.54-1.31-.96-5.17-9.75-7.56-20.37-9.52-31.1-6-32.75-2.55-65.05,4.81-97.15.33-1.46.99-2.74,1.63-4.06.39-.77.96-1.34,1.75-1.68,12.77-.96,25.53-2.04,38.01-5.18,4.72-1.19,9.52-2.22,13.73-4.79,4.09-2.5,4.06-4.62-.01-7.1-4.65-2.84-9.92-3.9-15.09-5.29-1.95-.53-4.81-.23-4.93-3.51Z"/>
  <path class="cls-33" d="M407.04,145.43c19.14-10.16,36.86-7.74,53.16,6.18,7.86,6.72,14.34,14.7,19.08,23.86,20.62,39.9,24.5,80.96,7.76,123.2-3.57,9.02-9.2,16.82-16.46,23.31-8.59,7.68-18.68,11.49-30.25,11.21-9.62.62-17.63-3.12-24.99-8.94-13.37-10.56-22.39-24.22-29.02-39.69-8.52-19.87-12.59-40.69-12.14-62.18.44-20.83,4.38-40.98,15.48-59.17,4.45-7.29,9.52-13.88,17.38-17.78Z"/>
  <path class="cls-19" d="M329.86,115.41c-9.07,21.15-21.41,40.12-37.65,56.48-.48,3.26-3.69,4.22-5.41,6.43-11.1,9.12-24.04,14.27-37.81,17.67-3.13.77-6.14,1.95-9.22,2.89-6.88,1.38-13.66,3.3-20.68,3.96-15.77,2.71-31.6,3.38-47.5,1.37-1.99-.25-3.84-.77-4.84-2.76-.38-2.31,1.47-3.12,2.95-3.96,16.77-9.55,23.83-25.09,26.57-43.21,1.68-11.08,2.58-22.27,4.88-33.27,3.48-16.62,15.2-27.51,31.99-29.6,5.42-.68,9.82,1.64,14,4.6,6.14,4.33,11.07,10.03,16.76,14.88,9.12,7.77,19.23,11.01,31.16,8.88,9.44-1.68,18.94-2.98,28.34-4.94,2.15-.45,4.47-1.34,6.46.59Z"/>
  <path class="cls-27" d="M407.04,145.43c-2.45,4.52-7.25,6.69-10.38,10.73-9.39,12.11-14.91,25.78-17.81,40.55-6.98,35.56-1.34,69.27,15.96,101,6.55,12.02,15.96,21.58,27.33,29.2,5.51,3.7,12.06,4.38,18.18,6.29-9.46,2.06-19.17,2.3-28.7,3.83-4.82.78-9.62.9-14.44.16-.43.29-.9.46-1.42.49-9.14-.47-16.02-5.46-21.34-12.13-14.32-18-22.84-38.66-26.45-61.35-.28-1.78,0-3.55.52-5.27-.19-6.79-1.17-13.53-1.01-20.37.55-23.54,6.48-45.78,16.09-67.09,2.03-4.49,5.44-8.36,8.22-12.51,10.85-6.85,23.08-10.1,35.25-13.53Z"/>
  <path class="cls-9" d="M314.35,414.02c-3.91.43-7.82.86-11.73,1.29-1.41.57-2.92.09-4.34.34-3.29.57-4.8-.93-5.3-4.05-1.56-9.55-4.54-18.63-9.15-27.16-.85-1.57-1.57-3.24-1.22-5.12.34-.97,1.03-1.71,1.93-2.09,8.22-3.42,16.22-7.41,24.92-9.58.5.04.94.23,1.34.53,2.31,2.88.65,6.54,2.03,10.25,1.26-2.89.23-5.86,1.93-8.05.35-.33.76-.48,1.24-.48.82.32,1.21,1,1.47,1.78,1.76,5.39,1.76,5.32,6.69,2.07,6.76-4.45,11.59-10.59,15.75-17.38,1.36-1.49,3.18-2.2,5.01-2.88,8.36-3.1,16.55-6.63,24.88-9.81,2.51-.96,5.03-2.46,7.92-1.16,1.51,1.91.91,4.07.53,6.08-5.51,29.14-22.17,49.61-48.78,62.17-4.7,2.22-9.99,2.55-15.11,3.23Z"/>
  <path class="cls-15" d="M283.16,379.09c5.7,10.59,10.55,21.47,11.69,33.64.18,1.89,1.25,2.42,2.93,2.42,1.61,0,3.23.1,4.84.16-.78.2-1.58.62-2.34.55-3.89-.36-4.75,1.38-4.73,5.11.21,42.24-28.49,76.05-70.1,82.65-3.49.55-7.13.23-10.7.31,11.91-3.58,22.88-8.86,32.46-17,15.32-13.04,24.75-29.41,28.03-49.18,4.22-25.44-2.66-48.11-19.31-67.37-12.79-14.8-29.35-23.83-49-26.49-1.52-.21-2.89-.38-3.79-1.75,1.43-2.25,3.77-2.11,5.97-2.16,4.14-.08,8.27-.1,12.4.02,21.77,2.28,40.17,11.33,54.69,27.78,2.9,3.29,6.96,6.12,6.97,11.3Z"/>
  <path class="cls-8" d="M329.86,115.41c-11.77,2.3-23.59,4.29-35.42,6.25-11.79,1.95-21.85-1.15-30.74-8.67-5.7-4.82-11.09-10-16.74-14.88-6.05-5.23-12.68-7.02-20.18-2.98-1.99,1.07-4.11,1.95-6.23,2.75-10.68,4.08-15.52,12.32-17.71,23.13-2.9,14.32-2.96,29.09-6.78,43.21-4.38,16.17-12.7,29.45-28.97,36.25-.67,1.33-1.59,2.45-3.07,2.88-2.99.88-5.93.89-7.56-2.25-1.96-3.78.81-5.51,3.59-7.05.7-.67,1.48-1.29,2.36-1.66,16.99-7.1,23.03-21.7,26.13-38.26.65-3.49,1.02-7.04,1.71-10.53,3.59-5.43,2.33-11.92,3.91-17.8.67-2.5.93-5.11,1.42-7.66,2.64-13.94,10.45-23.51,23.94-28.3,1.22-.43,2.41-.99,3.55-1.6,10.16-5.37,19.31-3.41,28.11,3.38,5.51,4.25,9.98,9.8,16.25,13.1,1.75,2.56,3.73,4.86,6.78,5.93.45.03.77.26.94.68,1.46,1.04,2.96,1.95,4.85,1.93.95-.64,1.95-1.13,3.14-1.03,11.39.6,22.38-2.17,33.48-4.01,4.42-.73,8.75-2.16,13.33-1.59,2.84-.06,6.04-.12,6.35,3.57.36,4.37-3.89,3.94-6.45,5.22Z"/>
  <path class="cls-15" d="M314.35,414.02c10.86-2.92,21.24-6.85,30.22-13.88,17.7-13.86,29.26-31.37,32.29-54,.15-1.11.53-2.2.8-3.29,2.81-5.18,8.09-5.56,12.98-6.38,1.78-.3,3.82-.18,5.69.36.3.08.58.2.85.36-2.14,24.78-12.54,45.17-32.43,60.35-14.84,11.32-31.69,16.83-50.4,16.48Z"/>
  <path class="cls-2" d="M286.01,176.84c2.07-1.65,4.13-3.3,6.2-4.95l21.12-2.88c4.14,2.42,9,2.37,13.43,3.86,3.28,1.1,6.34,2.57,9.26,4.26,3.71,2.14,3.76,5.68.32,8.24-3.58,2.66-7.82,3.83-12.04,5.03-12.2,3.49-24.76,4.77-37.33,6-1.72.17-3.62.46-5.05-1.08-2.17-5.97,1.13-10.88,3.13-16.04.32-.81,1.62-1.23.95-2.44Z"/>
  <path class="cls-13" d="M282.64,113.51c-.88-.08-1.76-.16-2.64-.24,1.01-12.61,4.7-24.48,10.09-35.85,5.87-8.74,13.77-14.08,24.54-14.31,8.28-.18,16.57-.04,23.33,5.9,5.18,4.56,5.6,9.84,1.04,14.86-.45-1.49-.9-2.83-1.24-4.19-2.82-11.12-8.97-13.61-19.43-9.79-14.48,5.28-23.6,16.59-29.37,30.67-1.24,4.74-2.01,9.71-6.32,12.95Z"/>
  <path class="cls-10" d="M282.64,113.51c1.68-4.52,2.45-9.5,6.32-12.95,9.87-.65,19.75-1.34,29.5,1.15,4.08,1.04,8.13,2.19,11.49,4.92-8.26,3.54-17.19,4.11-25.86,5.78-5.25,1.01-10.59,1.55-15.91,2.08-1.84.18-3.92.58-5.55-.97Z"/>
  <path class="cls-33" d="M369.01,159.44c-.29,4.2-4.02,2.33-6.02,3.06-3.74,1.35-7.96,1.03-11.81,2.45-1.5.55-2.47-1.27-3.79-1.78,7.11-1.8,14.34-2.93,21.62-3.73Z"/>
  <path class="cls-33" d="M161.1,194.6c-2.75,1.09-5.25,2.7-3.52,5.99,1.53,2.92,4.4,1.8,6.85.98.91-.3,1.78-.73,2.66-1.11,3.94,3.33,8.87,2.39,13.33,2.68,13.13.84,26.23-.5,39.3-1.78,2.04,2.46.72,4.96,0,7.38-5.71,19.44-8.61,39.38-8.7,59.54-.09,20.01,2.81,39.79,9.04,58.94.61,2.98,2.09,5.69,2.81,8.65.41,1.69,1.14,3.38.03,5.08-6.5,1.82-13.22.04-19.77,1.18-10.4,1.22-20.94,1.14-31.12,4.35-27.53,8.69-45.63,26.81-54.86,53.99-1.72,5.07-2.88,10.28-3.2,15.65-22.92-10.69-40.72-26.91-53.25-48.94-4.59-8.07-7.57-16.8-10.97-25.37-.68-.69-1.6-1.27-1.87-2.21-2.66-9.18-5.05-18.42-4.14-28.13,1.79-1.53,1.13-3.6,1.14-5.47.32-32.55,11.42-60.51,35.24-83.07,6.89-6.53,14.9-11.42,23.32-15.71,1.52-.77,3.59-.84,4.13-2.99,9.24,3.41,18.34,3,27.64-.19,4.69-1.61,7.65-5.13,11.35-7.84,3.34-.51,6.67-1.27,10.03-1.45,2.43-.12,2.74-1.76,3.42-3.32,1.3.72,1.3,1.9,1.11,3.14Z"/>
  <path class="cls-19" d="M43.72,311.5c2.23,4.07,1.65,8.65,2.43,12.99,1.05,5.81,2.38,11.57,3.59,17.35-7.7,1.2-15.39,2.84-23.23,1.11-1.58-.35-3.18-.72-4.68-1.31-8.13-3.21-9.69-9.55-3.74-15.96,6.96-7.49,15.87-11.64,25.63-14.18Z"/>
  <path class="cls-4" d="M161.1,194.6c-1.25-.74-.59-2.15-1.11-3.14.42-5.6,3.12-10.18,6.56-14.37,4.87-5.92,9.05-12.26,12.13-19.31,2.53-5.8,6.68-10.31,11.59-14.18,2.58,3.52.51,7.16-.04,10.59-2.13,13.26-6.56,25.48-17.56,34.25-3.47,2.76-7.44,4.61-11.56,6.16Z"/>
  <path class="cls-33" d="M107.28,203.41c-1.55-5.06.73-8.47,4.97-10.71,8.25-4.36,17.11-5.95,26.36-4.95,5.74.62,7.79,2.92,7.69,7.77-1.85,3.6-4.76,5.96-8.5,7.46-8.19,3.29-16.49,5-25.33,2.86-1.98-.48-3.37-1.84-5.19-2.41Z"/>
  <path class="cls-2" d="M107.28,203.41c3.71-.38,6.92,1.91,10.63,1.87,10.57-.12,20.43-2.13,28.39-9.76.17.21.25.45.24.72-.81,3.44-3.36,5.59-6.18,7.05-8.67,4.49-17.82,6.31-27.57,4.08-2.18-.5-3.88-1.39-5.24-3.09-.24-.24-.33-.52-.27-.85Z"/>
  <path class="cls-32" d="M244.06,436.62c-5,15.58-14.41,26.32-29.3,33.16,0-10.57.05-20.55-.04-30.52-.02-2.24.99-2.68,2.94-2.66,8.58.06,17.16.03,26.4.03Z"/>
  <path class="cls-32" d="M151.95,437.43c8.82-1.84,17.73-.41,26.59-.73,2.59-.09,1.85,2.22,1.86,3.66.07,9.11.04,18.22.05,27.33-1.63,1.05-3.15.29-4.58-.41-11.43-5.57-19.05-14.67-24.02-26.17-.51-1.19-.82-2.48.09-3.68Z"/>
  <path class="cls-11" d="M170.91,378.01c2.66-1.75,5.7-4.66,8.56-3.13,2.5,1.34.93,5.33.98,8.13.11,6.44-.09,12.88-.16,19.31-8.17,2-16.43,1.1-24.64.54-3.63-.25-3.69-3.21-2.46-5.92,2.97-6.5,7.69-11.62,13.34-15.86,1.41-1.06,2.87-2.11,4.38-3.07Z"/>
  <path class="cls-12" d="M226.94,401.53c-.45.33-.9.66-1.35.99-7.84,3.44-13.64-.6-12.91-7.29.48-4.45.05-8.99.11-13.49.03-2.11.08-4.22,1.96-5.7,10.34,3.93,18.1,10.81,23.47,20.45-.64,2.72-2.83,3.22-5.13,3.68-2.05.4-4.2.44-6.14,1.36Z"/>
  <path class="cls-31" d="M214.74,376.04c0,6.79.12,13.58-.08,20.36-.1,3.5.57,5.58,4.72,5.25,2.03-.16,4.13.55,6.2.86,4.37,0,8.75.04,13.12,0,1.7-.01,3.16.16,4,1.99,1.08,2.35,1.44,3.89-2.11,3.84-9.23-.13-18.46-.14-27.69.01-3.21.05-4.23-1.14-4.17-4.26.15-8.42.02-16.84.06-25.26.03-5.42.86-5.78,5.94-2.8Z"/>
  <path class="cls-5" d="M170.91,378.01c-5.77,5.18-11.51,10.37-15.16,17.43-3.1,6-3.11,5.92,3.75,6.14,6.93.22,13.91-.96,20.78.74,1.15,4.76-.72,6.28-5.53,6.09-8.44-.34-16.91-.14-25.37-.07-2.34.02-3.96-.21-2.79-3.16,4.79-12.03,12.28-21.64,24.32-27.17Z"/>
  <path class="cls-23" d="M151.95,437.43c5.35,14,14.41,24.5,28.5,30.26.42,3.27-.37,4.53-3.99,3.11-13.74-5.39-23.32-14.94-29.11-28.4-.72-1.68-2.43-3.78-.91-5.28,1.34-1.31,3.69-.62,5.5.3Z"/>
  <path class="cls-3" d="M208.78,454.41c0-4.7,0-9.4,0-14.1,0-1.86,0-3.69,2.67-3.63,2.35.06,2.42,1.69,2.42,3.38,0,9.08-.03,18.16.03,27.24.02,2.24-.63,4.05-3,4.17-2.96.15-2.04-2.38-2.08-3.93-.13-4.37-.04-8.75-.04-13.13Z"/>
  <path class="cls-18" d="M226.94,401.53c3.76-1.68,7.51-3.36,11.27-5.04,1.49,1.27,3.11,2.98,2.33,4.76-.59,1.36-2.92.59-4.47.59-3.04,0-6.09-.19-9.13-.3Z"/>
  <path class="cls-28" d="M275.16,111.33c-.31-.23-.63-.45-.94-.68.15-20.46,1.21-40.84,4.96-61,.7-3.79,1.45-7.59,3.76-11.05-2.59,24.24-5.18,48.49-7.77,72.73Z"/>
  <path class="cls-22" d="M218.76,328.22c-5.34-13.92-7.56-28.48-8.86-43.22-2.51-28.55,1.8-56.31,9.82-83.63,6.76-1.37,13.52-2.74,20.28-4.12,12.24-2.55,24.67-1.57,37.02-2,1.51-.05,2.89.12,3.95,1.34-4.32,20.27-8.18,40.61-8.58,61.44-.47,24.4,2.92,48.14,11.87,70.96-.1,3.73-3.27,4.12-5.72,4.84-10.11,3-20.52,3.09-30.79,1.54-8.61-1.3-16.97-4.12-25.64-5.33-1.33-.19-2.42-.89-3.36-1.82Z"/>
  <path class="cls-12" d="M396.33,336.83c-6.91-.13-12.64,3.41-18.67,6.02-12.31,4.72-24.62,9.44-36.92,14.15-1.99,2.49-4.74,3.67-7.64,4.77-5.98,2.26-12.27,3.97-17.1,8.55-.23,0-.46,0-.69,0-1.7-.49-3.46-.85-4.93-1.93-.26-.02-.53-.05-.79-.09-1.94-.12-3.3-1.25-4.46-2.64-7.58-9.1-14.22-18.83-19.25-29.58-.98-2.09-2.47-4.34-.85-6.85,22.96-10.42,38-28.99,51.17-49.54,4.35-6.78,7.21-14.43,12.29-20.77,2.19,9.24,3.42,18.69,6.75,27.69,4.79,12.97,10.62,25.38,19.08,36.35,5.57,7.22,12.84,12.15,22.01,13.86Z"/>
  <path class="cls-14" d="M285.03,329.23c4.54,13.75,12.9,25.18,22.06,36.11.83.99,1.67,1.98,2.5,2.97-8.46,4.45-17.5,7.49-26.43,10.78-9.16-13.15-20.6-23.62-35.28-30.4-6.09-2.81-12.41-4.7-19-5.78-2.11-.34-4.1-.92-5.97-1.95-1.4-4.24-3.41-8.28-4.15-12.74,9.88-.13,19.07,3.61,28.65,5.1,11.46,1.78,22.97,1.69,34.08-2.44,1.02-.38,1.85-1.24,2.78-1.88.26.07.52.15.77.24Z"/>
  <path class="cls-17" d="M280.97,196.59c-13.63,1.56-27.31.68-40.97.66,11.63-3.75,23.58-6.64,34.41-12.58,4.1-2.25,8.12-4.65,11.6-7.83,1.24,4.05-1.86,7.21-2.27,10.95-.28,2.54-1.18,5.02-1.81,7.53-.32.42-.64.85-.96,1.27Z"/>
  <path class="cls-19" d="M398.43,222.43c1.06-16.95,3.13-33.6,13.31-48.07,11.56-16.43,30.74-18.35,45.36-4.67,15.03,14.06,21.49,32.25,25.04,51.69,3.12,17.1,2.33,34.18-2.74,50.95-3.34,11.04-8.9,20.78-18.46,27.34-12.43,8.52-29.71,4.04-40.58-9.53-13.39-16.71-19.43-36.06-21.11-57.06-.14-1.77-.64-3.52-.78-5.29-.14-1.78-.03-3.58-.03-5.36Z"/>
  <path class="cls-1" d="M236.42,155.38c-4.79-3.97-6.93-11.04-4.95-16.4,2.02-5.49,7.2-8.82,13.6-8.71.95.63,2.24-.28,3.12.69,5.32,1.14,8,4.88,9.58,9.71.74,1.75.71,3.44-.5,4.99-1.55,1.98-2.24,3.97-1.8,6.68.49,3-7.69,8.24-9.6,6.13-2.86-3.16-6.19-2.5-9.45-3.08Z"/>
  <path class="cls-25" d="M236.42,155.38c3.3-.65,6.46-1.53,9.2,1.82,1.16,1.42,9.02-2.38,8.58-4.1-.96-3.76,1.05-6.06,2.91-8.71.66-.93.46-2.47.65-3.73,1.81,2.42.9,4.79-.67,6.65-1.39,1.64-1.29,2.73.25,4.26,1.01-2.58,2.19-4.94,5.53-2.96,1.23.73,2.03-.29,3.02-.81,1.53-.82,3.15-.87,4.37.66,1.02,1.28,1.14,2.64.09,4-.68.89-1.18,1.75-1.17,3.03.01,1.83-1.3,3.1-3.03,3.26-1.67.15-2.79-.79-3.6-2.55-1.24-2.71-2.56-5.3-5.78-1.01-2.18,2.91-6.16,4.03-9.61,5.39-.62.25-2.1-.02-2.2-.35-1.35-4.36-5.74-3.19-8.54-4.84Z"/>
  <path class="cls-30" d="M248.18,130.95c-1.11.08-2.22.15-3.12-.69,1.49-2.53,1.86-5.21.3-7.75-.96-1.57-1.47-2.94-.14-4.36,1.23-1.32,2.82-1.61,4.36-.54.85.59,1.62.9,2.66.79,1.76-.18,3.25.27,3.68,2.28.4,1.86-.42,3.4-2.04,3.94-3.21,1.06-2.35,5.56-5.7,6.34Z"/>
  <path class="cls-21" d="M241.9,161.86c-.78,1.4-.51,2.59.72,4.08,1.18,1.42,1.11,3.44-.74,4.7-1.67,1.14-8.93-.92-9.86-2.74-1.06-2.08-.14-3.69,1.74-4.28,1.93-.61,2.36-1.84,2.76-3.49.43-1.75,1.79-2.09,3.44-1.77,1.91.38,2.2,1.65,1.92,3.49Z"/>
  <path class="cls-24" d="M226.77,141.6c-1.53-1.33-3.03-.73-4.55.51-.44.36-1.24.54-1.81.43-1.56-.31-3.13-1.52-2.62-2.9,1.08-2.94.79-6.77,4.08-8.49,1.63-.86,3.33.14,3.75,1.97.43,1.87,1.54,2.64,3.17,3.2,1.66.56,2.07,1.85,1.62,3.49-.51,1.84-1.86,2-3.63,1.78Z"/>
  <path class="cls-20" d="M316,370.32c-.19-2.72.83-4.27,3.63-5.24,7.11-2.48,14.09-5.36,21.12-8.08-4.35,10.11-12.35,16.58-21.73,21.63-2.02,1.09-2.91.19-2.84-2.05.06-2.08-.11-4.18-.17-6.26Z"/>
  <path class="cls-6" d="M310.38,368.4c1.95-.14,4.91-2.87,4.93,1.93.01,2.6-.03,5.21.05,7.8.07,2.38-1.51,3.28-3.37,3.33-2.33.06-1.59-2.04-1.63-3.3-.1-3.25,0-6.5.02-9.75Z"/>
  <path class="cls-19" d="M131.35,191.53c2.48.29,6.18-.88,6.79,2.21.67,3.42-2.97,4.62-5.71,5.53-4.32,1.43-8.77,2.44-13.38,1.96-1.77-.18-3.91-.58-4.34-2.53-.46-2.04,1.55-3.16,3.06-3.94,4.24-2.19,8.81-3.23,13.59-3.23Z"/>
  <path class="cls-7" d="M248.04,143.06c-1.18.04-2.66.23-2.42-1.47.35-2.44,1.78-4.3,4.42-4.41,1.78-.08,3.37,1.12,3.24,2.94-.24,3.3-3.24,2.41-5.24,2.94Z"/>
  <path class="cls-26" d="M238.12,149.29c-1.74-.39-2.74-1.48-2.45-3.09.42-2.36,2.09-3.53,4.5-3.45,1.27.04,3.1.06,2.78,1.76-.47,2.5-2.48,3.97-4.83,4.78Z"/>
  <path class="cls-16" d="M246.71,149.27c-1.37.28-1.55-.74-1.65-1.66-.1-.85-.42-2.1,1.05-2.03,1.17.06,2.04,1,2.35,2.05.41,1.38-1.35.83-1.75,1.64Z"/>
</svg>